{
	"asset":{
		"copyright":"Al Anwar",
		"generator":"Khronos glTF Blender I/O v5.0.21",
		"version":"2.0"
	},
	"scene":0,
	"scenes":[
		{
			"name":"Scene",
			"nodes":[
				1
			]
		}
	],
	"nodes":[
		{
			"mesh":0,
			"name":"PhoneCamera",
			"rotation":[
				0,
				0,
				0.7071066498756409,
				0.7071069478988647
			],
			"scale":[
				15.614477157592773,
				15.614477157592773,
				15.614477157592773
			],
			"translation":[
				-0.6677410006523132,
				1.8074257373809814,
				0.0030569902155548334
			]
		},
		{
			"children":[
				0
			],
			"mesh":1,
			"name":"PhoneBody"
		}
	],
	"materials":[
		{
			"doubleSided":true,
			"name":"Material",
			"pbrMetallicRoughness":{
				"baseColorFactor":[
					0.7306147217750549,
					0.23410315811634064,
					0.8000074625015259,
					1
				],
				"metallicFactor":0.8928571343421936,
				"roughnessFactor":0.3839285671710968
			}
		},
		{
			"doubleSided":true,
			"name":"CameraGlass"
		}
	],
	"meshes":[
		{
			"name":"Cube",
			"primitives":[
				{
					"attributes":{
						"POSITION":0,
						"NORMAL":1,
						"TEXCOORD_0":2
					},
					"indices":3,
					"material":0
				},
				{
					"attributes":{
						"POSITION":4,
						"NORMAL":5,
						"TEXCOORD_0":6
					},
					"indices":7,
					"material":1
				}
			]
		},
		{
			"name":"Cube.001",
			"primitives":[
				{
					"attributes":{
						"POSITION":8,
						"NORMAL":9,
						"TEXCOORD_0":10
					},
					"indices":11,
					"material":0
				}
			]
		}
	],
	"accessors":[
		{
			"bufferView":0,
			"componentType":5126,
			"count":306,
			"max":[
				0.0871998742222786,
				0.008767349645495415,
				0.08720001578330994
			],
			"min":[
				-0.08720016479492188,
				-0.026843039318919182,
				-0.08720007538795471
			],
			"type":"VEC3"
		},
		{
			"bufferView":1,
			"componentType":5126,
			"count":306,
			"type":"VEC3"
		},
		{
			"bufferView":2,
			"componentType":5126,
			"count":306,
			"type":"VEC2"
		},
		{
			"bufferView":3,
			"componentType":5123,
			"count":1434,
			"type":"SCALAR"
		},
		{
			"bufferView":4,
			"componentType":5126,
			"count":193,
			"max":[
				0.062052223831415176,
				0.0106320446357131,
				0.06205233186483383
			],
			"min":[
				-0.062052514404058456,
				0.0014077912783250213,
				-0.06205238401889801
			],
			"type":"VEC3"
		},
		{
			"bufferView":5,
			"componentType":5126,
			"count":193,
			"type":"VEC3"
		},
		{
			"bufferView":6,
			"componentType":5126,
			"count":193,
			"type":"VEC2"
		},
		{
			"bufferView":7,
			"componentType":5123,
			"count":1056,
			"type":"SCALAR"
		},
		{
			"bufferView":8,
			"componentType":5126,
			"count":80,
			"max":[
				0.30991363525390625,
				3.579083204269409,
				1.953787088394165
			],
			"min":[
				-0.30991363525390625,
				-3.579083204269409,
				-1.953787088394165
			],
			"type":"VEC3"
		},
		{
			"bufferView":9,
			"componentType":5126,
			"count":80,
			"type":"VEC3"
		},
		{
			"bufferView":10,
			"componentType":5126,
			"count":80,
			"type":"VEC2"
		},
		{
			"bufferView":11,
			"componentType":5123,
			"count":324,
			"type":"SCALAR"
		}
	],
	"bufferViews":[
		{
			"buffer":0,
			"byteLength":3672,
			"byteOffset":0,
			"target":34962
		},
		{
			"buffer":0,
			"byteLength":3672,
			"byteOffset":3672,
			"target":34962
		},
		{
			"buffer":0,
			"byteLength":2448,
			"byteOffset":7344,
			"target":34962
		},
		{
			"buffer":0,
			"byteLength":2868,
			"byteOffset":9792,
			"target":34963
		},
		{
			"buffer":0,
			"byteLength":2316,
			"byteOffset":12660,
			"target":34962
		},
		{
			"buffer":0,
			"byteLength":2316,
			"byteOffset":14976,
			"target":34962
		},
		{
			"buffer":0,
			"byteLength":1544,
			"byteOffset":17292,
			"target":34962
		},
		{
			"buffer":0,
			"byteLength":2112,
			"byteOffset":18836,
			"target":34963
		},
		{
			"buffer":0,
			"byteLength":960,
			"byteOffset":20948,
			"target":34962
		},
		{
			"buffer":0,
			"byteLength":960,
			"byteOffset":21908,
			"target":34962
		},
		{
			"buffer":0,
			"byteLength":640,
			"byteOffset":22868,
			"target":34962
		},
		{
			"buffer":0,
			"byteLength":648,
			"byteOffset":23508,
			"target":34963
		}
	],
	"buffers":[
		{
			"byteLength":24156,
			"uri":"iPhone18.bin"
		}
	]
}
